<?xml version="1.0" encoding="UTF-8" standalone="no"?>
<!DOCTYPE svg PUBLIC "-//W3C//DTD SVG 1.1//EN" "http://www.w3.org/Graphics/SVG/1.1/DTD/svg11.dtd">
<svg width="100%" height="100%" viewBox="0 0 200 240" version="1.1" xmlns="http://www.w3.org/2000/svg" xmlns:xlink="http://www.w3.org/1999/xlink" xml:space="preserve" xmlns:serif="http://www.serif.com/" style="fill-rule:evenodd;clip-rule:evenodd;stroke-miterlimit:2;">
    <g transform="matrix(5.63438,0,0,5.63438,14.0241,-64.5756)">
        <path d="M7.06,23.057C4.26,20.603 4.578,16.057 7.794,14.113C11.019,12.164 14.863,13.827 16.109,17.24C17.082,15.16 19.537,14.379 21.567,15.512C22.815,16.207 23.701,17.825 23.43,19.239C26.086,19.075 27.826,21.992 26.339,24.236C29.829,25.467 31.124,29.708 28.962,32.719C27.873,34.235 26.221,34.933 24.383,35.051C21.518,35.235 18.466,34.917 15.582,35.05L12.334,40.595L15.563,40.595C15.794,40.845 15.846,41.243 15.946,41.575C16.503,43.421 16.896,45.328 17.428,47.182L12.725,52.234C12.656,52.248 14.354,48.998 14.853,47.261L13.698,42.776L7.696,42.776L9.787,35.052C6.7,35.103 3.539,35.311 1.582,32.483C-0.713,29.167 0.798,24.539 4.647,23.326C4.865,23.257 5.566,23.057 5.741,23.057L7.06,23.057Z" style="fill:none;stroke:rgb(35,31,32);stroke-width:0.3px;"/>
    </g>
</svg>
